<mxfile host="Electron" modified="2024-10-10T13:04:48.358Z" agent="Mozilla/5.0 (Windows NT 10.0; Win64; x64) AppleWebKit/537.36 (KHTML, like Gecko) draw.io/22.0.3 Chrome/114.0.5735.289 Electron/25.8.4 Safari/537.36" etag="iiMCjStqUQsqiz87knj6" version="22.0.3" type="device">
  <diagram name="Page-1" id="kN-BUFZ81DXSKNnwhnj6">
    <mxGraphModel dx="1290" dy="669" grid="1" gridSize="10" guides="1" tooltips="1" connect="1" arrows="1" fold="1" page="1" pageScale="1" pageWidth="1169" pageHeight="827" math="0" shadow="0">
      <root>
        <mxCell id="0" />
        <mxCell id="1" parent="0" />
        <mxCell id="8M68Yd4gMEwoEqx3Mhlh-3" value="" style="rounded=1;whiteSpace=wrap;html=1;" vertex="1" parent="1">
          <mxGeometry x="290" y="40" width="520" height="630" as="geometry" />
        </mxCell>
        <mxCell id="8M68Yd4gMEwoEqx3Mhlh-4" value="&lt;b&gt;Frontend&lt;/b&gt;&lt;br&gt;- Remix.run (react)&lt;br&gt;- HTML&lt;br&gt;- CSS" style="rounded=1;whiteSpace=wrap;html=1;" vertex="1" parent="1">
          <mxGeometry x="520" y="170" width="120" height="60" as="geometry" />
        </mxCell>
        <mxCell id="8M68Yd4gMEwoEqx3Mhlh-5" value="&lt;b&gt;Backend&lt;/b&gt;&lt;br&gt;- C# .NET" style="rounded=1;whiteSpace=wrap;html=1;" vertex="1" parent="1">
          <mxGeometry x="525" y="260" width="120" height="60" as="geometry" />
        </mxCell>
        <mxCell id="8M68Yd4gMEwoEqx3Mhlh-6" value="&lt;b&gt;Database&lt;/b&gt;&lt;br&gt;- Postgres" style="rounded=1;whiteSpace=wrap;html=1;" vertex="1" parent="1">
          <mxGeometry x="525" y="360" width="120" height="60" as="geometry" />
        </mxCell>
      </root>
    </mxGraphModel>
  </diagram>
</mxfile>
